<?xml version="1.0" encoding="UTF-8"?>
<svg version="1.1" viewBox="0 0 2048 1661" width="1280" height="1280" xmlns="http://www.w3.org/2000/svg">
<path transform="translate(428,157)" d="m0 0 5 1 1 10 21-6 19-2h877l20 1 20 3 21 6 23 11 12 8 14 11 17 17 10 14 10 17 8 20 4 15 3 19 1 10v49l10-7 8-8 8-7 8-8 13-10 9-3 16 4 31 8 36 8 45 12 36 10 8 4 7 14 31 124 11 33-2 9-15 16-35 35-7 8-12 12h-2l-2 4-41 41-8 7-59 59-2 3h-2l-1 3h-2l-2 4-33 33-8 7-10 9-9 5-6 2-18 2-1 53v407l72-1h39l15 2 6 3 3 4 1 6 1 55v21l-1 32-2 20-4 18-6 16-10 19-10 14-13 15-9 9-11 9-8 6-14 8-16 7-21 5-22 3-33 2h-710l-23-2-23-5-19-7-17-9-14-10-14-12-12-13-11-16-12-23-7-21-4-20-2-24-1-51-1-701v-176l-1-4h-221l-28-1-12-2-5-4-4-8-2-8-1-11v-67l1-24 4-27 3-12 10-19 9-11 11-12 11-11 8-7 12-13 11-13 14-19 5-6zm292 45-118 2 2 4 13 17 12 20 8 18 5 18 3 24 1 26v1039l2 18 4 16 7 16 11 16 11 12 11 10 19 11 20 8 19 4 8 1h9l19-3 21-7 16-8 13-9 10-9 10-13 10-19 5-17 3-16 1-8 1-25 1-74 2-11 7-6 4-2 556-1 23-1 1-383v-86l-4-3-24-8-44-12-14-3-6 2-7 9-11 11-8 7-43 43-2 1v2l-4 2-26 26-7 8-22 22-11 9-11 8-7 2-7-1-11-8-5-8v-6l5-10 12-14 15-16 6-7 5-4 3-3v-2l4-2 30-30 7-8 21-21 5-4 4-5 5-4 4-5 8-7 1-3h2l7-8 6-7v-10l-8-37-11-46-14-55v-7l5-9 11-12 58-58 7-8 19-19 8-7 43-43 7-11-1-4-1-88-3-19-5-16-8-17-10-15-9-10-8-8-14-10-16-8-13-4-12-2-13-1-44-1zm-242 1-18 2-19 5-14 7-10 8-10 9-11 14-10 16-8 20-4 19-3 32v33l2 15 2 3 7 1 24 1h54l134-1 6-1 1-3v-63l-2-25-4-17-9-19-8-11-9-10-9-8-15-10-16-8-12-5-15-3-12-1zm1125 171 1 9 4 21 9 45 2 4 5-2 10-9 9-9 2-1v-2l3-1 7-8 22-22 2-4-10-5-44-12zm-47 15-16 14-22 22-8 7-13 13-7 8-9 10-2 6 3 7 7 37 11 52 2 4 8-4 15-14 19-19 7-8 29-29 2-7-7-35-9-38-4-18-3-8zm154 41-5 3-8 10-12 12-8 7-10 10-8 7-5 5v2l25 7 34 8 14 3h5l-1-10-6-25-8-33-4-6zm-270 78-10 6-45 45-6 5-7 8-8 8-2 3 1 6 4 18 11 52 5 24 3 3 9-6 12-11 18-18 7-8 16-17 15-15 1-2v-7l-10-44-8-35-2-9-3-6zm175 16-8 7-7 8-13 13-7 8-11 11-8 7-9 9-2 1v2l-4 2-7 10 2 2 29 8 57 13 7 2h7l13-11 44-44 8-7 7-6v-2l4-2 2-3v-3l-26-6-53-15-16-4zm-117 117-8 7-7 8-16 17-13 13-8 7-19 19-5 6 1 3 36 9 48 11 14 5 5-3 8-8 8-7 40-40 8-7 11-10 1-4-16-4-21-6-37-11-21-5zm-456 656-121 1-1 72-2 22-5 23-6 17-8 16-7 12-10 13-6 8v1h616l22-3 17-5 13-5 17-11 14-12 11-14 8-14 7-21 2-13 2-36v-48l-1-1-26-1-201-1z" fill="#FDFEFE"/>
<path transform="translate(767,592)" d="m0 0h362l28 1 8 2 4 3 2 8v11l-2 12-4 5-10 3-65 1h-357l-8-3-6-7-3-10v-9l4-10 5-5 3-1z" fill="#FDFEFE"/>
<path transform="translate(876,454)" d="m0 0h203l72 1 14 1 5 5v14l-1 15-2 7-3 2-9 1-59 1h-72l-294-1-7-2-4-8-2-8v-12l3-7 4-5 6-2 14-1z" fill="#FDFEFE"/>
<path transform="translate(743,318)" d="m0 0h409l13 1 3 2 1 3v28l-1 7-4 3-12 1-142 1h-70l-205-1-12-2-3-3-3-10v-13l3-9 5-5 4-2z" fill="#FDFEFE"/>
<path transform="translate(732,730)" d="m0 0h388l14 1 10 3 4 5 1 4v13l-3 11-4 4-6 2-9 1-147 1h-242l-9-1-6-4-6-12-1-3v-10l2-8 5-5z" fill="#FDFEFE"/>
<path transform="translate(734,867)" d="m0 0h388l12 1 10 5 4 5 2 7-1 12-4 8-4 3-13 2h-396l-8-2-6-10-1-2v-15l3-7 6-5z" fill="#FDFEFE"/>
<path transform="translate(1246 1e3)" d="m0 0h108l28 1 8 2 4 3 3 9 1 9-1 16-3 3-13 2-42 1h-147l-10-2-6-7-3-8v-15l4-8 3-3 13-2z" fill="#FDFEFE"/>
<path transform="translate(735,1140)" d="m0 0h195l8 5 4 5 2 6v11l-3 11-5 5-9 2h-186l-13-2-5-4-7-14v-8l5-10 6-5z" fill="#FDFEFE"/>
<path transform="translate(1238,1139)" d="m0 0h91l51 1 12 3 4 5 1 4v20l-3 8-4 3-5 1-28 1h-164l-9-2-6-7-5-10v-14l5-8 8-4z" fill="#FDFEFE"/>
<path transform="translate(737 1e3)" d="m0 0h190l8 2 5 5 3 7v16l-2 9-3 3-13 2-78 1h-115l-6-3-7-8-2-6v-13l5-9 5-4z" fill="#FDFEFE"/>
</svg>
