<?xml version="1.0" encoding="UTF-8"?>
<svg version="1.1" viewBox="0 0 976 904" width="1280" height="1280" xmlns="http://www.w3.org/2000/svg">
<path transform="translate(365,66)" d="m0 0h354l15 2 12 6 7 6 7 11 3 9 1 95v33l31-1h26l14 2 9 4 8 6 8 9 5 11 1 3v223l-4 11-5 8-7 8-14 7-10 2h-33v118l-2 13-7 14-8 8-12 6-16 3h-174l-1 26v47h35l6 5 3 7-1 8-6 7-2 1-21 1h-180l-16-1-5-4-3-5-1-6 3-8 6-5 8-1h26l1-71-7-1h-168l-13-2-10-4-10-8-7-10-4-11-1-30 1-185h-17l-14-3-8-4-10-9-7-10-3-9v-224l4-11 9-12 10-7 8-3 6-1 137-1 1-7 1-31 5-12 7-10h2v-2l11-7 8-3zm0 29-5 2-5 5-2 8v207l3 8 5 4 3 1h62l1-14-1-1-34-1-7-6-2-9 1-164 4-6 6-3h153l5 2 4 5 1 2 1 92 1 1h174l1-1 1-57v-61l-3-7-5-5-8-2zm47 59-1 20v66l1 46 2 1h9l3-1 2-25 5-12 7-9 10-7 11-4 66-1 2-1v-73zm-90 14-135 1-6 3-4 7v214l4 6 5 4h240l1-43-6-1h-47l-15-1-12-4-8-6-8-9-4-8-2-7-1-108-1-48zm147 88-7 3-5 5-1 3-1 107v102l2 8 4 5 3 2 6 1 357-1 6-4 3-3 1-5v-211l-3-6-4-4-12-2zm-233 177v132h526l2-1v-41l-1-2-296-1-10-2-14-7-8-9-5-10-2-6-1-9v-43l-1-1zm2 161-2 1-1 34 1 13 5 8 7 3h503l7-3 4-4 2-8v-43l-15-1zm220 88-2 1-1 36v29l1 7 2 1h81l5-1v-72l-30-1z" fill="#FEFEFE"/>
<path transform="translate(571,286)" d="m0 0 18 1 15 4 16 8 13 10 7 7 9 13 6 12 4 11 2 14v17l-3 16-6 15-6 10-9 11-11 10-11 7-14 6-12 3-7 1h-20l-14-3-15-6-11-7-11-9-8-9-7-11-7-15-3-11-1-7v-21l4-16 7-16 9-13 10-11 13-9 14-7 15-4zm-16 32-16 8-10 9-6 8-6 12-3 14v10l2 12 5 12 8 11 10 9 14 7 6 2 7 1h15l12-3 12-6 10-8 8-10 5-10 1-7-5-1-57-1-5-3-3-9v-57zm33 0v42h14l27-1-3-10-6-10-9-10-13-8-7-3z" fill="#FEFEFE"/>
<path transform="translate(362,815)" d="m0 0h274l6 3 4 6v9l-4 6-5 4h-274l-6-4-4-8 1-7 4-6z" fill="#FEFEFE"/>
<path transform="translate(731,432)" d="m0 0h61l8 2 5 4 3 7-1 9-5 6-4 2h-98l-7-6-3-7 1-7 4-6 5-3z" fill="#FEFEFE"/>
<path transform="translate(598,125)" d="m0 0h95l7 3 4 5 1 2v9l-6 8-5 2h-95l-6-3-5-7-1-7 4-7 5-4z" fill="#FEFEFE"/>
<path transform="translate(597,184)" d="m0 0h99l5 3 4 7v9l-7 8-5 2h-95l-8-7-3-7 1-6 7-8z" fill="#FEFEFE"/>
<path transform="translate(702,286)" d="m0 0 9 1 7 6 1 2 1 95-2 6-8 7h-10l-8-7-1-3v-97l3-5 5-4z" fill="#FEFEFE"/>
<path transform="translate(746,315)" d="m0 0 10 2 5 4 2 3 1 5v64l-4 6-5 4h-11l-6-4-3-5-1-5v-61l3-7 6-5z" fill="#FEFEFE"/>
<path transform="translate(216,345)" d="m0 0h68l6 4 4 6 1 6-4 8-5 4-3 1h-67l-7-6-3-6 1-7 4-6z" fill="#FEFEFE"/>
<path transform="translate(218,286)" d="m0 0h62l8 2 6 8 1 6-3 7-6 6h-71l-7-7-2-5 1-7 6-8z" fill="#FEFEFE"/>
<path transform="translate(257,227)" d="m0 0h18l10 1 7 6 3 7-2 8-4 5-3 2-24 1h-36l-11-1-5-4-4-8 1-8 4-5 5-3z" fill="#FEFEFE"/>
<path transform="translate(479,609)" d="m0 0h40l6 4 4 5 1 7-3 7-6 5-10 2h-28l-7-3-4-5-2-4v-7l4-7z" fill="#FEFEFE"/>
<path transform="translate(791,344)" d="m0 0 7 1 8 7 2 10v29l-3 6-5 5-2 1h-10l-6-4-3-5-1-4v-33l3-7 7-5z" fill="#FEFEFE"/>
<path transform="translate(685,815)" d="m0 0h36l8 3 4 4 1 2v9l-4 7-4 3-8 1h-28l-8-3-6-7v-10l4-6z" fill="#FEFEFE"/>
</svg>
