<?xml version="1.0" encoding="UTF-8"?>
<svg version="1.1" viewBox="0 0 1140 1036" width="1280" height="1280" xmlns="http://www.w3.org/2000/svg">
<path transform="translate(413,62)" d="m0 0h332l16 3 12 5 10 6 3 3-1 5-12 13-4 4-6-2-10-5-6-1-16-1h-310l-14 1-11 4-8 6-8 9-5 12-1 5v20l232 1 1 1v27l-2 1h-232v79l25-5h4v-41l1-3h28l1 1v43l15 2 22 5 21 7 19 9 14 9 11 8 11 9 16 16 10 13 10 15 9 17 8 21 6 24 3 18 1 2 43 1 1 4-1 24-2 1h-42l-1 10-5 24-8 24-8 17-11 18-13 17-8 9h-2l-1 3-8 7-14 11-14 9-19 10-22 8-26 6-15 3v42l-1 1h-28v-43l-27-5-19-5-16-6-16-8-15-9-12-9-14-12-14-15-11-15-9-15-10-21-7-21-6-28v-7h-43l-1-1v-28l2-1h41l8-38 7-20 9-19 10-16 10-13 9-10 4-5 8-7 16-13 13-8 15-8 8-4 1-142 4-15 7-14 8-10 9-9 13-8 15-5zm-14 220-25 5-23 8-19 10-11 8-10 8-12 11-9 11-10 14-10 19-7 18-6 25-1 8 1 1 13 1h15v28l-28 1-1 3 4 21 8 24 8 16 10 16 9 11 11 12h2v2l6 4 3-26 5-17 8-17 9-12 9-10 13-10 7-4-1-4-10-12-8-16-4-15v-21l4-15 8-16 8-10 8-7 14-8 11-4 15-2 17 1 11 3 11 5 10 6 8 7 10 14 5 11 4 18v15l-3 14-5 12-9 14-7 7 1 3 11 7 11 9 9 10 9 14 6 13 4 13 2 14 1 15 5-2 8-7 10-11 10-14 10-17 8-20 5-19 3-17-1-1h-27v-29h20l7-1v-8l-6-25-6-16-8-16-9-14-10-13-16-16-15-11-15-9-15-7-22-7-19-4h-4l-1 29h-28l-1-29zm9 88-9 3-10 6-7 7-6 11-3 10v14l4 12 6 9 8 8 12 6 7 2h14l12-4 11-7 7-8 5-10 2-10v-11l-2-9-6-11-7-8-10-6-11-4zm-2 117-15 4-14 7-10 8-8 8-8 13-4 9-3 12-1 15v17l1 7 12 6 18 6 22 5h6l1-28 28-1 1 29 10-1 18-4 18-6 10-5 2-2v-33l-3-16-8-16-8-11-10-9-14-8-15-5-5-1z" fill="#FEFEFE"/>
<path transform="translate(787,355)" d="m0 0h24l2 2v121l9-7 13-12 11-9 12-11 8-7 13-12 11-9 13-12 8-7 10-9 10-8 10-9 13-8 6-2 14-1 14 3 11 6 6 5 7 10 5 13 1 6v8l-3 12-6 11-9 10-9 11-12 13-9 11-14 15-7 8-9 10-9 11-13 14-9 11-4 5h-2l-2 4-14 15-9 11-11 12-1 2h-2l-2 4-11 12-9 11-16 17-9 11-12 13-6 8-6 26-6 15-6 11-9 11-11 11-10 7-15 8-15 5-19 3h-114l-6-4-3-5-1-8 3-6 13-10 7-8 4-8 1-5 1-37 3-20 4-13 4-9 6-11 7-9 9-10 11-9 14-8 19-7 18-3 11-8 10-9 8-7 12-11 11-9 14-13 14-11 1-1 1-150zm181 29-8 4-11 10-11 9-14 13-11 9-13 12-8 7-11 10-11 9-13 12-8 7-15 13-13 12-11 9-13 12-8 7-14 12-12 11-10 9-11 9-10 9 2 5 15 14 31 31 1 2 4-2 8-8 7-8 9-10 9-11 12-13 9-11 14-15 9-11 12-13 7-8 12-14 10-11 9-11 13-14 7-8 10-11 9-11 13-14 9-11 11-12 5-10-1-8-4-6-6-5zm-273 221-15 5-11 6-11 9-10 12-8 17-3 13-1 11-1 33-3 16-3 6v3l31 1h32l14-1 20-6 12-7 11-9 9-12 7-14 4-17-3-5-59-59-3-2z" fill="#FEFEFE"/>
<path transform="translate(931,121)" d="m0 0h27l22 1 6 5 2 4v184l-3 5-4 4-8 2h-323l-7-3-5-5-2-6v-180l5-7 4-3zm-264 29-1 5v141l1 1h290l2-1v-146z" fill="#FEFEFE"/>
<path transform="translate(345,648)" d="m0 0h23l5 2v72h106l6 3v2l3 1 2 4v122l-2 7-6 6h-335l-5-5-3-5v-126l6-8 3-1h196v-73zm-160 102-18 1v82l1 6h293v-88l-4-1z" fill="#FEFEFE"/>
<path transform="translate(805,736)" d="m0 0h7l1 1v121l-1 19-3 14-5 12-9 13-9 9-14 9-14 5-11 2-47 1h-156l-134-1-15-3-16-7-9-7-8-7-8-11 5-5 16-9h5l9 10 13 7 11 2h331l13-3 11-7 8-9 5-12 1-4 1-32v-20h-262l-1-1v-28h263l1-57 1-1z" fill="#FEFEFE"/>
<path transform="translate(182,121)" d="m0 0h121l5 2 6 7v127l-1 2h-2l-2 5-4 3h-156l-5-3-5-7-1-8v-24l1-94 6-8 2-1zm-14 29-1 1v86l1 1 115 1 2-1v-88z" fill="#FEFEFE"/>
<path transform="translate(413,62)" d="m0 0h332l16 3 12 5 10 6 3 3-1 5-12 13-4 4-6-2-10-5-6-1-16-1h-310l-14 1-11 4-8 6-8 9-5 12-1 5v20l232 1 1 1v27l-2 1h-232v79l25-5h4v-41l1-3h28l1 1v43l15 2 22 5 21 7 19 9 14 9 11 8 11 9 16 16 10 13 10 15 9 17 8 21 6 24 3 18 1 2 43 1 1 4-1 24-2 1h-42l-1 10-5 24-8 24-8 17-11 18-13 17-8 9h-2l-1 3-8 7-14 11-14 9-19 10-22 8-26 6-15 3v42l-1 1h-28v-43l-27-5-19-5-16-6-16-8-15-9-12-9-14-12-14-15-11-15-9-15-10-21-7-21-6-28v-7h-43l-1-1v-28l2-1h41l8-38 7-20 9-19 10-16 10-13 9-10 4-5 8-7 16-13 13-8 15-8 8-4 1-142 4-15 7-14 8-10 9-9 13-8 15-5zm74 4-80 1-17 5-14 7-11 10-6 8-5 7-5 13-2 23v67l1 56-4 7-5 4-7 3-1 2-5 1-5 3-7 4v2l-4 1-12 9-7 5v2l-4 2-8 8-7 8-7 9-10 15-4 8-7 16-4 11-4 14-3 17-2 13v4l-6 2h-34l-3 3-1 3v9l3 4 3 1h25l10 3 4 4 2 9v9l1 3 1 12 2 3 3 12 8 14 7 16 12 19 3 1 2 4 7 8 4 6 7 6 8 7 12 9 16 9 16 8 19 6 18 4 12 2 12 5 4 4 1 3-1 13-2 17 4 4h11l4-2 2-9v-14l-1-11 1-6 25-5 18-4 18-7 16-8 12-7 10-7 9-7 9-8v-2l4-2 10-13 9-10 6-8 5-11 5-8 5-6 8-24 2-20 1-9 2-7h2l3-3 6-2 9-1h21l5-3-1-9-5-5-15-2h-11l-10-2-4-13-6-27-5-15-4-10-8-15-5-10-6-10-5-6-5-5-2-4-5-4h-2l-2-4h-2l-2-4-6-4h-2v-2h-3v-2l-10-7-3-3h-2l-2-4-7-4-11-4-14-7-17-5-25-5-9-2-2-4-2-28-3-7-7-2h-6l-3 2-1 3-1 28-2 7-6 3-13 2-5 1h-7l-3-2-1-4-1-44v-28l2-4 11-3h220l3-2 1-9-2-8-1-2-3-1h-215l-11-1-4-2-1-4v-12l1-15 3-10 9-9v-2l4-2 6-5 9-3 19-2 29 1h77l61-1 137 2 27 1 12 2 8-1 3-4v-9l-5-5-8-3-7-2-9-1z" fill="#FEFCD9"/>
<path transform="translate(805,736)" d="m0 0h7l1 1v121l-1 19-3 14-5 12-9 13-9 9-14 9-14 5-11 2-47 1h-156l-134-1-15-3-16-7-9-7-8-7-8-11 5-5 16-9h5l9 10 13 7 11 2h331l13-3 11-7 8-9 5-12 1-4 1-32v-20h-262l-1-1v-28h263l1-57 1-1zm-15 4v2h-2l-1 5v17l-1 25-3 9-11 1-133 1h-40l-47-1h-25l-3 3v15l2 2 47 1h206l8 4 1 5-1 18v23l-3 14v3h-2l-5 10-8 10-6 4-9 4-19 2h-323l-7-3-15-4-5-3-6-12-5 1-6 4v2l-4 2-3 5 4 6 6 5 4 5 17 5 4 2 26 4 29 1h35l32 1h28l8-1h7l9-1h16l24 1 101 1h32l19-4 14-7 5-3 6-9 9-7 6-10 4-17 1-16v-47l1-57-1-17-2-3-3-1z" fill="#FEFCD9"/>
<path transform="translate(787,355)" d="m0 0h24l2 2v121l9-7 13-12 11-9 12-11 8-7 13-12 11-9 13-12 8-7 10-9 10-8 10-9 13-8 6-2 14-1 14 3 11 6 6 5 7 10 5 13 1 6v8l-3 12-6 11-9 10-9 11-12 13-9 11-14 15-7 8-9 10-9 11-13 14-9 11-4 5h-2l-2 4-14 15-9 11-11 12-1 2h-2l-2 4-11 12-9 11-16 17-9 11-12 13-6 8-6 26-6 15-6 11-9 11-11 11-10 7-15 8-15 5-19 3h-114l-6-4-3-5-1-8 3-6 13-10 7-8 4-8 1-5 1-37 3-20 4-13 4-9 6-11 7-9 9-10 11-9 14-8 19-7 18-3 11-8 10-9 8-7 12-11 11-9 14-13 14-11 1-1 1-150zm175 5-13 5-12 9-9 8-8 6-13 12-13 11-8 7-12 11-9 8v2l-5 2-11 10-8 7-15 14-5 5v2l-8 1-3-3-1-9-1-24-1-46v-27l-3-8-6-2h-7l-3 5-1 44v23l1 69-6 8-10 9-14 12-8 7-16 15-5 4v2l-4 2-7 7-8 7-3 2v2l-6 1-23 3-9 3-12 7-6 4-10 9-12 13-6 11-5 10-2 7-3 23-1 32-2 11-4 8-6 10-1 3-4 2-7 5v2l-3 1-3 9 1 5 4 2 49 1h70l18-4 14-5 21-14 10-9 7-9 6-11 6-14 3-10 1-12 5-12 9-10 10-11 5-7 10-8 4-6 9-10 9-13 12-12 11-12 7-8 5-5v-2l4-2 9-11 8-9v-2l4-2 9-10 13-17 17-17 14-19 9-11 5-6v-2l4-2 9-10 4-5 6-4 6-10 3-9v-14l-2-8-6-12-5-6-7-5-12-3-7-1z" fill="#FEFCD9"/>
<path transform="translate(696,238)" d="m0 0h208l26 1v27l-1 1h-233l-1-5v-22z" fill="#FEFEFE"/>
<path transform="translate(392,278)" d="m0 0 9 1 5 5 2 9 1 12h11l5-1 1-6v-13l3-5 1-1h11l17 3 14 4 19 9 15 9 13 9v2l4 2 10 9 9 9v2h2l7 9 7 11 8 13 7 16 4 11v8l4 13v11l-5 4h-18l-3 7 1 8 5 3 18 5 3 7-2 12-2 5-3 13-4 9-8 16-7 12-9 14-8 10h-2l-2 5-5 5-5 4h-7l-4-9-1-3-2-19-6-18-6-11-3-6v-2h-2l-7-9v-2l-4-2-7-5-5-5-5-3-4-5 1-5 2-3h2l1-3h2l2-5 7-11 4-13 1-4-1-28-4-10-2-7-5-5-3-6-10-10-11-8-11-4-5-1h-29l-9 2-18 10-8 6-2 3h-2l-2 4-6 8-4 13-3 15v10l1 14 3 11 12 16 7 7-1 6-5 5-12 9h-2v2l-8 6-1 2h-2l-1 4-7 9-1 3h-2l-3 9-5 17-4 25-3 6-7-1-8-7-12-15-8-11-2-4-3-3-7-12-6-12-3-9-4-11-3-11v-11l2-5 3-2 8-2 13-1 1-7-2-7-8-3-13-3-3-3v-10l2-18 4-15 6-14 9-15 8-14 9-9 9-12 10-8 17-11 24-11 15-6 9-3zm7 4-25 5-23 8-19 10-11 8-10 8-12 11-9 11-10 14-10 19-7 18-6 25-1 8 1 1 13 1h15v28l-28 1-1 3 4 21 8 24 8 16 10 16 9 11 11 12h2v2l6 4 3-26 5-17 8-17 9-12 9-10 13-10 7-4-1-4-10-12-8-16-4-15v-21l4-15 8-16 8-10 8-7 14-8 11-4 15-2 17 1 11 3 11 5 10 6 8 7 10 14 5 11 4 18v15l-3 14-5 12-9 14-7 7 1 3 11 7 11 9 9 10 9 14 6 13 4 13 2 14 1 15 5-2 8-7 10-11 10-14 10-17 8-20 5-19 3-17-1-1h-27v-29h20l7-1v-8l-6-25-6-16-8-16-9-14-10-13-16-16-15-11-15-9-15-7-22-7-19-4h-4l-1 29h-28l-1-29z" fill="#FEFCD9"/>
<path transform="translate(931,121)" d="m0 0h27l22 1 6 5 2 4v184l-3 5-4 4-8 2h-323l-7-3-5-5-2-6v-180l5-7 4-3zm-194 4-61 1h-30l-3 2-1 3-1 44v81l1 25v36l1 2 9 1 37 1 63 1h180l35-1 15-3 2-4-1-171-1-11-3-6-17-1z" fill="#FEFCD9"/>
<path transform="translate(345,648)" d="m0 0h23l5 2v72h106l6 3v2l3 1 2 4v122l-2 7-6 6h-335l-5-5-3-5v-126l6-8 3-1h196v-73zm5 4-3 4-1 64-2 7-12-2h-41l-43 1h-70l-23-1-8 2-3 5v25l-1 25-1 77 4 4 39 1h284l13-2 3-1 1-3 1-18v-12l-1-19v-43l-1-33-2-6-2-1-25-1h-26l-50 1-8-2-3-6-1-16v-44l-5-5z" fill="#FEFCD9"/>
<path transform="translate(785,179)" d="m0 0h143l2 2v26l-1 1-141 1-4-1v-28z" fill="#FEFEFE"/>
<path transform="translate(667,144)" d="m0 0h255l29 1 9 2 4 6v10l-1 17v71l-1 46-1 2-7 2-37 1h-237l-14-2-3-3-1-3v-110l-1-34 4-5zm0 6-1 5v141l1 1h290l2-1v-146z" fill="#FEFCD9"/>
<path transform="translate(389,780)" d="m0 0h35l7 1 1 2v15l-1 10-1 1h-129l-1-1v-27z" fill="#FEFEFE"/>
<path transform="translate(173,745)" d="m0 0 11 1h235l41 1 4 3 1 3v76l-1 12-6 3-100 1h-117l-41-1-32-2-4-3-1-3-1-85 6-5zm12 5-18 1v82l1 6h293v-88l-4-1z" fill="#FEFCD9"/>
<path transform="translate(967,381)" d="m0 0h9l9 6 5 5 3 5-1 9-3 5-9 10-8 11-15 16-10 13-12 12-5 6h-2l-2 4-8 9-9 11-9 9-7 8-8 11h-2l-2 4-7 8-13 13-1 3-5 5-7 8-12 13-7 10-5 5-3 4h-2l-2 4-8 8-9 11-3 4h-2l-2 4-8 7-7 1-3-1v-2h-2l-6-10-2-4h-2v-2l-4-2-10-8-10-10-5-6-5-5v-7l3-5 10-9 7-8 8-8 11-8 12-9 10-10 14-10 11-9 4-2 1-3 8-7 10-9 8-7 4-2 2-4h2v-2l8-7 11-10 8-7 16-13 7-7 12-9 6-5 7-8h2l1-3 14-11 10-9 6-3zm1 3-8 4-11 10-11 9-14 13-11 9-13 12-8 7-11 10-11 9-13 12-8 7-15 13-13 12-11 9-13 12-8 7-14 12-12 11-10 9-11 9-10 9 2 5 15 14 31 31 1 2 4-2 8-8 7-8 9-10 9-11 12-13 9-11 14-15 9-11 12-13 7-8 12-14 10-11 9-11 13-14 7-8 10-11 9-11 13-14 9-11 11-12 5-10-1-8-4-6-6-5z" fill="#FEFCD9"/>
<path transform="translate(182,121)" d="m0 0h121l5 2 6 7v127l-1 2h-2l-2 5-4 3h-156l-5-3-5-7-1-8v-24l1-94 6-8 2-1zm-32 4-6 3-1 4v112l-1 12 4 4 9 1 26 2h122l6-3 1-3v-121l-2-8-3-2-14-1z" fill="#FEFCD9"/>
<path transform="translate(409,483)" d="m0 0h19l16 3 16 10 9 8 5 3v2l4 2 9 13 3 8 6 28v22l-4 7-7 6-10 5-25 7-16 1-5-4-1-2-3-21-2-2h-12l-3 3-1 4-1 15-2 6-8 1-11-2-20-6-10-4-9-5-5-6-1-3v-21l1-24 2-10 5-12 9-9 4-3h2l1-3 10-7 20-8zm-3 4-15 4-14 7-10 8-8 8-8 13-4 9-3 12-1 15v17l1 7 12 6 18 6 22 5h6l1-28 28-1 1 29 10-1 18-4 18-6 10-5 2-2v-33l-3-16-8-16-8-11-10-9-14-8-15-5-5-1z" fill="#FEFCD9"/>
<path transform="translate(199,780)" d="m0 0 70 1 1 1v21l-2 6-65 1-6-2v-27z" fill="#FEFEFE"/>
<path transform="translate(691,602)" d="m0 0h13l9 5 8 8 7 8 5 4v2l4 2 4 5 2 1v2l4 2 9 9 7 8 10 10v9l-7 13-5 13-11 14-9 8-9 6-5 3-12 5-8 1-42 1-32-1-5-3-1-2v-7l2-11 1-12 1-35 1-14 6-19 6-7 11-8 11-10 12-6zm4 3-15 5-11 6-11 9-10 12-8 17-3 13-1 11-1 33-3 16-3 6v3l31 1h32l14-1 20-6 12-7 11-9 9-12 7-14 4-17-3-5-59-59-3-2z" fill="#FEFCD9"/>
<path transform="translate(696,238)" d="m0 0h208l26 1v27l-1 1h-233l-1-5v-22zm62 3-16 1h-40l-4 4v12l2 4 3 1 33 1h171l15-1 4-4-1-14-3-4-20 1h-40l-9-1z" fill="#FEFCD9"/>
<path transform="translate(171,143)" d="m0 0 54 2h37l10-1 12 2 5 5 2 10-1 54-1 21-3 5-2 2h-11l-13-1h-75l-17-1-4-3-1-3-1-30v-40l-1-12 3-7zm-3 7-1 1v86l1 1 115 1 2-1v-88z" fill="#FEFCD9"/>
<path transform="translate(785,179)" d="m0 0h143l2 2v26l-1 1-141 1-4-1v-28zm111 6-80 1h-24l-3 5-1 4v8l2 1h89l35 1 10-1 2-2-1-11-3-5-8-1z" fill="#FEFCD9"/>
<path transform="translate(199,179)" d="m0 0h56l1 4v17l-1 8-8 1h-44l-6-1v-28z" fill="#FEFCD9"/>
<path transform="translate(697,179)" d="m0 0h51l6 2v26l-1 1-17 1h-36l-4-1-1-14 1-14z" fill="#FEFCD9"/>
<path transform="translate(389,780)" d="m0 0h35l7 1 1 2v15l-1 10-1 1h-129l-1-1v-27zm-81 5-2 2v14l1 2 3 1 59 1h55l4-3-1-13-4-4z" fill="#FEFCD9"/>
<path transform="translate(414,364)" d="m0 0 16 2 10 4 10 7 9 10 6 12v23l-3 9-4 7-4 5h-2l-3 6h-2v2l-10 7-12 3h-16l-15-5-8-5-9-11-8-16-1-3v-11l1-13 4-9 7-8 7-6 14-7zm-6 6-9 3-10 6-7 7-6 11-3 10v14l4 12 6 9 8 8 12 6 7 2h14l12-4 11-7 7-8 5-10 2-10v-11l-2-9-6-11-7-8-10-6-11-4z" fill="#FEFCD9"/>
<path transform="translate(199,780)" d="m0 0 70 1 1 1v21l-2 6-65 1-6-2v-27zm14 5-7 1-2 2-1 4v9l2 2 35 2h21l4-2 1-2v-10l-2-5-6-1-13 1z" fill="#FEFCD9"/>
<path transform="translate(208,184)" d="m0 0 32 1 8 3 3 6 1 5-3 4-11 1h-17l-15-1-3-2v-10l2-5z" fill="#FEFEFE"/>
<path transform="translate(565,853)" d="m0 0 27 1 1 1v16l-1 11h-27l-1-1-1-19 1-8z" fill="#FEFCD9"/>
<path transform="translate(707,185)" d="m0 0 12 1h21l4 1 3 7v7l-3 3h-39l-5-2-1-7 1-7z" fill="#FEFEFE"/>
<path transform="translate(576,859)" d="m0 0 5 1 1 3-4 6h-2l-2 5-4-1v-11l1-2z" fill="#FEFEFE"/>
</svg>
